<?xml version="1.0" encoding="UTF-8" standalone="no"?>
<!-- Uploaded to: SVG Repo, www.svgrepo.com, Generator: SVG Repo Mixer Tools -->

<svg
   width="60px"
   height="60px"
   viewBox="0 0 24 24"
   fill="none"
   version="1.1"
   id="svg4"
   sodipodi:docname="arrow-right-3-svgrepo-com.svg"
   inkscape:version="1.2.1 (9c6d41e410, 2022-07-14)"
   xmlns:inkscape="http://www.inkscape.org/namespaces/inkscape"
   xmlns:sodipodi="http://sodipodi.sourceforge.net/DTD/sodipodi-0.dtd"
   xmlns:xlink="http://www.w3.org/1999/xlink"
   xmlns="http://www.w3.org/2000/svg"
   xmlns:svg="http://www.w3.org/2000/svg">
  <defs
     id="defs8">
    <linearGradient
       inkscape:collect="always"
       id="linearGradient5637">
      <stop
         style="stop-color:#283c86;stop-opacity:1;"
         offset="0"
         id="stop5633" />
      <stop
         style="stop-color:#00c705;stop-opacity:0.1183432;"
         offset="1"
         id="stop5635" />
    </linearGradient>
    <linearGradient
       inkscape:collect="always"
       xlink:href="#linearGradient5637"
       id="linearGradient5641"
       x1="2"
       y1="12"
       x2="21.990034"
       y2="12"
       gradientUnits="userSpaceOnUse" />
  </defs>
  <sodipodi:namedview
     id="namedview6"
     pagecolor="#ffffff"
     bordercolor="#000000"
     borderopacity="0.25"
     inkscape:showpageshadow="2"
     inkscape:pageopacity="0.0"
     inkscape:pagecheckerboard="0"
     inkscape:deskcolor="#d1d1d1"
     showgrid="false"
     inkscape:zoom="0.65625"
     inkscape:cx="294.85714"
     inkscape:cy="400.7619"
     inkscape:window-width="1119"
     inkscape:window-height="689"
     inkscape:window-x="0"
     inkscape:window-y="0"
     inkscape:window-maximized="0"
     inkscape:current-layer="svg4" />
  <path
     d="M16.19 2H7.81C4.17 2 2 4.17 2 7.81V16.18C2 19.83 4.17 22 7.81 22H16.18C19.82 22 21.99 19.83 21.99 16.19V7.81C22 4.17 19.83 2 16.19 2ZM18.53 12.53L14.24 16.82C14.09 16.97 13.9 17.04 13.71 17.04C13.52 17.04 13.33 16.97 13.18 16.82C12.89 16.53 12.89 16.05 13.18 15.76L16.19 12.75H6C5.59 12.75 5.25 12.41 5.25 12C5.25 11.59 5.59 11.25 6 11.25H16.19L13.18 8.24C12.89 7.95 12.89 7.47 13.18 7.18C13.47 6.89 13.95 6.89 14.24 7.18L18.53 11.47C18.67 11.61 18.75 11.8 18.75 12C18.75 12.2 18.67 12.39 18.53 12.53Z"
     fill="#292D32"
     id="path2"
     style="fill-opacity:1;fill:url(#linearGradient5641)" />
  <path
     style="fill-opacity:1;stroke-width:2.27492;stroke-linecap:square;stroke-linejoin:round;stroke-miterlimit:1.4;stroke-dasharray:9.09966, 18.1993;stroke-opacity:0.89"
     d="m 361.88061,370.66667 c 0.25816,-2.30477 0.0533,-4.87307 -0.45527,-5.70736 -1.28072,-2.10098 -1.2828,-14.48041 -0.002,-14.4819 1.05591,-0.001 0.0856,-7.76258 -1.12139,-8.96954 -0.36081,-0.36082 0.1077,-1.57627 1.04114,-2.701 1.25612,-1.51354 1.2042,-2.63896 -0.1998,-4.33068 -1.52934,-1.84274 -1.49167,-2.29024 0.19437,-2.30904 1.75417,-0.0197 1.75802,-0.23455 0.0239,-1.33334 -1.41844,-0.89877 -1.54534,-1.63268 -0.40427,-2.3379 2.04317,-1.26275 1.66984,-8.84008 -0.51129,-10.37734 -1.0946,-0.77148 -1.08566,-1.12677 0.0288,-1.14286 1.83659,-0.0265 1.90096,-31.84407 0.0704,-34.80594 -0.60805,-0.98385 -0.47789,-1.78882 0.28924,-1.78882 1.15209,0 1.4049,-11.1378 0.31129,-13.71428 -0.83562,-1.96866 -0.64887,-13.712 0.21808,-13.71307 0.54031,-6.7e-4 0.45304,-2.34824 -0.19393,-5.21682 -0.71564,-3.17306 -0.55874,-5.83316 0.40065,-6.79257 1.08675,-1.08673 0.97061,-2.30758 -0.3736,-3.92725 -1.59642,-1.92355 -1.57086,-2.35453 0.14077,-2.37362 1.75417,-0.0197 1.75802,-0.23455 0.0239,-1.33334 -1.41844,-0.89877 -1.54534,-1.63268 -0.40427,-2.3379 2.04317,-1.26275 1.66984,-8.84008 -0.51129,-10.37734 -1.0946,-0.77148 -1.08566,-1.12677 0.0288,-1.14286 1.83659,-0.0265 1.90096,-31.84406 0.0704,-34.80594 -0.60805,-0.98385 -0.47789,-1.78882 0.28924,-1.78882 1.15209,0 1.4049,-11.1378 0.31129,-13.71428 -0.86785,-2.04459 -0.63162,-13.71201 0.27764,-13.71307 1.05592,-0.001 0.0856,-7.76257 -1.12138,-8.96954 -0.36082,-0.36082 0.1077,-1.57627 1.04114,-2.701 1.25612,-1.51353 1.2042,-2.63896 -0.1998,-4.33068 -1.52934,-1.84274 -1.49167,-2.29024 0.19437,-2.30905 1.75417,-0.0196 1.75802,-0.23453 0.0239,-1.33333 -1.41844,-0.89877 -1.54534,-1.63268 -0.40427,-2.3379 2.04317,-1.26275 1.66984,-8.84007 -0.51129,-10.37734 -1.0946,-0.77148 -1.08566,-1.12677 0.0288,-1.14285 1.83659,-0.0265 1.90096,-31.844073 0.0704,-34.805954 -0.60805,-0.983847 -0.47789,-1.788813 0.28924,-1.788813 1.66308,0 1.502,-10.61057 -0.20242,-13.333333 -2.23904,-3.576797 0.7396,-5.038034 9.72042,-4.768556 6.10149,0.183081 8.64013,0.806821 7.92649,1.947522 -0.57745,0.922997 -1.17436,2.363891 -1.32648,3.201986 -0.15211,0.838096 -0.75735,2.719394 -1.34497,4.180664 -0.77599,1.929711 -0.0865,3.05015 2.51944,4.093888 3.12325,1.250954 1.74756,2.422347 -2.12645,1.810661 -0.62857,-0.09925 -1.14286,0.505264 -1.14286,1.343359 0,0.838095 0.76968,1.523809 1.7104,1.523809 1.18172,0 1.12405,0.706495 -0.18659,2.285715 -1.52933,1.842738 -1.49167,2.290237 0.19437,2.309048 1.64265,0.01833 1.60095,0.340254 -0.19437,1.500475 -2.03174,1.313015 -2.03174,1.482327 0,1.52381 1.50191,0.03066 1.7042,0.430569 0.58991,1.166191 -2.18537,1.442728 -1.53103,8.859908 0.73731,8.357618 0.94622,-0.20952 1.7204,0.30476 1.7204,1.14286 0,0.83809 -0.98595,1.52381 -2.19101,1.52381 -1.25166,0 -2.09259,1.3066 -1.96144,3.04762 0.12626,1.67619 1.15269,3.04762 2.28094,3.04762 1.12826,0 1.62066,0.69689 1.09425,1.54866 -0.52643,0.85177 -1.59547,1.15416 -2.37565,0.67198 -0.78018,-0.48219 -1.41852,-0.15051 -1.41852,0.73704 0,0.88756 1.11254,1.61374 2.4723,1.61374 2.02482,0 2.12895,0.41371 0.57532,2.28572 -1.57094,1.89287 -1.40658,2.28972 0.95628,2.30905 1.80037,0.0148 2.20405,0.43645 1.09396,1.14287 -0.9676,0.61575 -1.58698,3.69097 -1.37639,6.83381 0.25705,3.83632 -0.26042,5.71427 -1.57459,5.71427 -1.07661,0 -1.85416,1.37143 -1.7279,3.04762 0.12626,1.67619 0.85332,3.04762 1.61569,3.04762 0.76236,0 0.47089,1.10277 -0.64771,2.45061 -1.72715,2.08108 -1.60147,2.76675 0.83343,4.54719 2.70072,1.97481 2.71737,2.2622 0.28669,4.94807 -1.59507,1.76253 -2.17667,3.90399 -1.52296,5.60754 0.81062,2.11244 0.55231,2.45144 -1.10611,1.45167 -1.82894,-1.10257 -1.84871,-0.9158 -0.12778,1.20709 1.11977,1.38131 1.59844,3.21937 1.06372,4.08457 -0.59998,0.97078 0.029,1.18891 1.6426,0.5697 1.98939,-0.7634 2.29193,-0.48587 1.26485,1.16032 -0.74249,1.19004 -1.47444,2.84943 -1.62656,3.68752 -0.1521,0.8381 -0.75735,2.7194 -1.34497,4.18067 -0.77599,1.92971 -0.0865,3.05014 2.51944,4.09388 3.12325,1.25096 1.74756,2.42235 -2.12645,1.81066 -0.62857,-0.0992 -1.14286,0.50527 -1.14286,1.34336 0,0.8381 0.76968,1.52381 1.7104,1.52381 1.18172,0 1.12405,0.7065 -0.18659,2.28572 -1.52933,1.84274 -1.49167,2.29023 0.19437,2.30905 1.64265,0.0183 1.60095,0.34025 -0.19437,1.50047 -2.03174,1.31302 -2.03174,1.48233 0,1.52381 1.50191,0.0307 1.7042,0.43057 0.58991,1.16619 -2.18537,1.44273 -1.53103,8.85991 0.73731,8.35762 0.94622,-0.20952 1.7204,0.30476 1.7204,1.14286 0,0.83809 -0.98595,1.52381 -2.19101,1.52381 -1.25166,0 -2.09259,1.3066 -1.96144,3.04762 0.12626,1.67619 1.15269,3.04761 2.28094,3.04761 1.12826,0 1.62066,0.6969 1.09425,1.54867 -0.52643,0.85177 -1.59547,1.15416 -2.37565,0.67197 -0.78018,-0.48218 -1.41852,-0.1505 -1.41852,0.73705 0,0.88756 1.11254,1.61374 2.4723,1.61374 2.02482,0 2.12895,0.41371 0.57532,2.28572 -1.57094,1.89287 -1.40658,2.28972 0.95628,2.30904 1.80037,0.0152 2.20405,0.43647 1.09396,1.14289 -0.9676,0.61574 -1.58698,3.69096 -1.37639,6.8338 0.25705,3.83631 -0.26042,5.71427 -1.57459,5.71427 -2.31223,0 -2.23103,6.07277 0.0821,6.14369 0.86927,0.0267 0.34071,0.98848 -1.17458,2.1374 -2.63938,2.00121 -2.62539,2.17975 0.33323,4.25204 2.79328,1.9565 2.87454,2.4683 0.85061,5.35785 -1.2385,1.76822 -1.78197,4.38225 -1.21712,5.85422 0.77516,2.02004 0.50029,2.34588 -1.14317,1.35513 -1.82894,-1.10257 -1.84871,-0.91581 -0.12777,1.20708 1.11977,1.3813 1.59844,3.21937 1.06371,4.08457 -0.59997,0.97078 0.029,1.18891 1.6426,0.56971 1.9894,-0.76341 2.29193,-0.48588 1.26485,1.1603 -0.74249,1.19005 -1.47444,2.84944 -1.62655,3.68753 -0.15211,0.8381 -0.75736,2.71939 -1.34498,4.18066 -0.77599,1.92971 -0.0865,3.05015 2.51944,4.09389 3.12325,1.25095 1.74756,2.42235 -2.12645,1.81066 -0.62856,-0.0992 -1.14285,0.50527 -1.14285,1.34336 0,0.8381 0.76968,1.52381 1.7104,1.52381 1.18172,0 1.12405,0.7065 -0.18659,2.28572 -1.52933,1.84274 -1.49167,2.29024 0.19437,2.30904 1.64265,0.0183 1.60095,0.34025 -0.19437,1.50048 -2.03174,1.31302 -2.03174,1.48233 0,1.52381 1.50191,0.0306 1.7042,0.43057 0.58991,1.16619 -2.18537,1.44272 -1.53103,8.8599 0.73731,8.35762 0.94622,-0.20952 1.7204,0.30476 1.7204,1.14286 0,0.83809 -0.98595,1.52381 -2.19101,1.52381 -1.25166,0 -2.09259,1.3066 -1.96144,3.04762 0.12626,1.67619 1.15269,3.04761 2.28094,3.04761 1.12826,0 1.62066,0.6969 1.09425,1.54867 -0.52643,0.85176 -1.59547,1.15416 -2.37565,0.67197 -0.78018,-0.48218 -1.41852,-0.15051 -1.41852,0.73705 0,0.88756 1.11254,1.61374 2.4723,1.61374 2.02482,0 2.12895,0.4137 0.57532,2.28572 -1.57094,1.89286 -1.40658,2.28972 0.95628,2.30904 1.80037,0.0152 2.20405,0.43647 1.09396,1.14289 -0.9676,0.61574 -1.58698,3.69095 -1.37639,6.8338 0.25705,3.83631 -0.26042,5.71427 -1.57459,5.71427 -2.31223,0 -2.23103,6.07277 0.0821,6.14369 0.86927,0.0267 0.34071,0.98848 -1.17458,2.1374 -2.62512,1.9904 -2.59413,2.20165 0.65704,4.47886 3.23404,2.26521 3.2765,2.53978 0.81357,5.26129 -1.60926,1.77819 -2.19591,3.92061 -1.54095,5.62741 0.81062,2.11243 0.55231,2.45145 -1.10611,1.45167 -1.82894,-1.10256 -1.84871,-0.9158 -0.12777,1.20709 1.11977,1.3813 1.59844,3.21937 1.06371,4.08457 -0.59997,0.97078 0.029,1.18891 1.6426,0.56971 1.9894,-0.76341 2.29193,-0.48588 1.26485,1.1603 -0.74249,1.19005 -1.47444,2.84944 -1.62655,3.68753 -0.15211,0.8381 -0.75736,2.71939 -1.34498,4.18066 -0.77599,1.92971 -0.0865,3.05015 2.51944,4.09389 2.80764,1.12454 1.38032,1.45804 -6.5637,1.53362 l -10.15152,0.0966 z"
     id="path4879"
     transform="scale(0.03)" />
</svg>
